<svg width="28" height="28" viewBox="0 0 28 28" fill="none" xmlns="http://www.w3.org/2000/svg">
<g clip-path="url(#clip0_3417_6775)">
<path d="M14.8138 26.1739V26.0739H14.9138H15.8268C17.282 26.0739 18.466 24.8899 18.466 23.4347V21.6086C18.466 20.0839 19.1126 18.6846 20.2435 17.7721C23.0743 15.488 24.414 11.9074 23.7939 8.29129C22.4927 0.704047 13.4192 -2.4173 7.63779 2.40158C5.3621 4.29836 4.05712 7.08352 4.05712 10.0433C4.05712 13.0508 5.40099 15.8639 7.74475 17.7615C8.88372 18.6837 9.53539 20.0865 9.53539 21.6082V21.6084V21.6086V23.4347C9.53539 24.8899 10.7194 26.0739 12.1746 26.0739H13.0876H13.1876V26.1739V27.087C13.1876 27.536 13.5517 27.9001 14.0007 27.9001C14.4497 27.9001 14.8138 27.536 14.8138 27.087V26.1739ZM16.7399 22.4216L16.8399 22.4216V22.5216V23.4347C16.8399 23.9934 16.3855 24.4478 15.8268 24.4478H12.1746C11.6159 24.4478 11.1615 23.9934 11.1615 23.4347V22.5216V22.4216H11.2615H16.7399ZM14.9138 12.8823H14.8138V12.7823V11.8693C14.8138 10.3036 16.0874 9.03008 17.6529 9.03008H18.566H18.666L18.666 9.13008V10.0431C18.666 11.6088 17.3924 12.8823 15.8268 12.8823H14.9138ZM11.2019 20.7956H11.1142L11.1028 20.7086C10.8836 19.0439 10.0593 17.5432 8.76789 16.4976C6.80771 14.9105 5.68319 12.5578 5.68313 10.0432C5.68313 7.56764 6.77516 5.2375 8.6789 3.65074C13.5038 -0.370792 21.1018 2.21369 22.1913 8.56614L22.0927 8.58304L22.1913 8.56614C22.7141 11.6151 21.6045 14.5846 19.2224 16.5065C17.9368 17.5439 17.1161 19.0414 16.8982 20.7085L16.8868 20.7955H16.799L14.9138 20.7955H14.8138V20.6955L14.8138 14.6085V14.5085H14.9138H15.8268C18.2889 14.5085 20.2921 12.5052 20.2921 10.0431V8.21702C20.2921 7.76797 19.9281 7.40395 19.4791 7.40395L17.6529 7.40395C16.194 7.40395 14.8963 8.10734 14.0807 9.1933L14.0007 9.29977L13.9207 9.1933C13.1052 8.10734 11.8074 7.40395 10.3484 7.40395H8.52232C8.07328 7.40395 7.70926 7.76797 7.70926 8.21702V10.0431C7.70926 12.5052 9.71248 14.5085 12.1746 14.5085H13.0876L13.1876 14.5085V14.6085L13.1876 20.6956V20.7956H13.0876H11.2019ZM13.1876 12.7823V12.8823L13.0876 12.8823H12.1746C10.6089 12.8823 9.33538 11.6087 9.33538 10.0431V9.13008V9.03008H9.43538H10.3484C11.9141 9.03008 13.1876 10.3037 13.1876 11.8693V12.7823Z" fill="#79043C" stroke="#FBEFF2" stroke-width="0.2"/>
</g>
<defs>
<clipPath id="clip0_3417_6775">
<rect width="28" height="28" fill="white" transform="matrix(-1 0 0 1 28 0)"/>
</clipPath>
</defs>
</svg>
