<svg width="33" height="46" viewBox="0 0 33 46" fill="none" xmlns="http://www.w3.org/2000/svg">
<path d="M6.33233 4.42827L6.17226 4.23623L6.33233 4.42827C2.6953 7.45972 0.609795 11.9107 0.609795 16.6409C0.609795 21.4475 2.75736 25.943 6.50325 28.9758L6.34594 29.1701L6.50326 28.9758C8.35565 30.4757 9.41415 32.7563 9.41415 35.2274V35.2278V35.2281L9.41415 38.163C9.41415 40.4524 11.2771 42.3152 13.5664 42.3152H15.0338H15.2838V42.5652V44.0327C15.2838 44.705 15.8289 45.2501 16.5013 45.2501C17.1736 45.2501 17.7187 44.705 17.7187 44.0327V42.5652V42.3152H17.9687L19.4361 42.3152C21.7255 42.3152 23.5884 40.4523 23.5884 38.163V35.2281C23.5884 32.7523 24.6385 30.4772 26.4782 28.9928L26.6352 29.1873L26.4782 28.9928C31.0022 25.3426 33.1436 19.6204 32.1523 13.8404C30.0732 1.71676 15.5729 -3.27386 6.33233 4.42827ZM20.9035 36.4455H21.1535V36.6955V38.1629C21.1535 39.1101 20.3833 39.8803 19.4361 39.8803L13.5664 39.8803C12.6192 39.8803 11.849 39.1101 11.849 38.1629L11.849 36.6955V36.4455H12.099L20.9035 36.4455ZM17.9687 21.293H17.7187V21.043V19.5756C17.7187 17.0101 19.8055 14.9233 22.3709 14.9233H23.8384H24.0884V15.1733V16.6408C24.0884 19.2063 22.0015 21.293 19.4361 21.293H17.9687ZM8.03521 27.0835L8.19252 26.8892L8.0352 27.0835C4.86406 24.5158 3.04455 20.7092 3.04446 16.6409C3.04446 12.6357 4.8113 8.86576 7.89121 6.29868L8.05128 6.49072L7.89121 6.29868C15.6963 -0.206766 27.9897 3.9721 29.7527 14.2519L29.5063 14.2942L29.7527 14.2519C30.5983 19.1835 28.8032 23.9884 24.9494 27.0978C22.9017 28.75 21.5938 31.1358 21.2464 33.793L21.218 34.0106H20.9985L17.9687 34.0106H17.7187V33.7606V23.9779V23.7279H17.9687H19.4361C23.3437 23.7279 26.5232 20.5484 26.5232 16.6408V13.7059C26.5232 13.0336 25.9782 12.4885 25.3058 12.4885H22.3709C20.0556 12.4885 17.9959 13.6047 16.7012 15.3286L16.5013 15.5947L16.3014 15.3286C15.0067 13.6047 12.9469 12.4885 10.6316 12.4885H7.69673C7.02436 12.4885 6.47931 13.0336 6.47931 13.7059V16.6408C6.47931 20.5484 9.65879 23.7279 13.5664 23.7279H15.0338H15.2838V23.9779V33.7607V34.0107H15.0338H12.0032H11.7839L11.7553 33.7933C11.4061 31.14 10.0924 28.7491 8.03521 27.0835ZM15.2838 21.043V21.293H15.0338H13.5664C11.0009 21.293 8.91415 19.2062 8.91415 16.6408V15.1733V14.9233H9.16415H10.6316C13.1971 14.9233 15.2838 17.0102 15.2838 19.5756V21.043Z" fill="#79043C" stroke="#FBEFF2" stroke-width="0.5"/>
</svg>
