<svg width="120" height="59" viewBox="0 0 120 59" fill="none" xmlns="http://www.w3.org/2000/svg">
<path d="M57.0516 35.649C56.4827 35.1596 55.9219 34.6862 55.4812 34.0924C54.5679 32.8809 54.3756 31.5249 54.656 30.0646C54.9765 28.4197 55.6815 26.9273 56.3626 25.4189C57.1477 23.6778 57.981 21.9527 58.3255 20.0591C58.5979 18.5908 58.5258 17.1626 57.8367 15.7986C57.8047 15.7264 57.7967 15.6381 57.6605 15.6141C57.7646 16.0955 57.8928 16.5689 57.973 17.0423C58.1893 18.326 57.9409 19.5697 57.5804 20.7973C57.0275 22.6909 56.1382 24.44 55.353 26.2453C54.8082 27.497 54.2875 28.7487 54.0872 30.1127C54.015 30.6022 54.0231 31.0996 54.0391 31.5891C54.0391 31.7014 54.1192 31.8538 53.999 31.918C53.8788 31.9822 53.7827 31.8458 53.6946 31.7736C51.9319 30.4497 50.634 28.7647 49.8809 26.6866C48.615 23.1803 48.9275 19.7863 50.9224 16.6331C52.0281 14.8839 53.5984 13.56 55.4171 12.5651C56.9795 11.7146 58.67 11.2813 60.4406 11.2813C62.4356 11.2813 64.3184 11.7868 66.065 12.7577C68.4526 14.0816 70.2953 15.9511 71.4731 18.4303C72.8752 21.367 72.9954 24.3678 71.8016 27.4007C70.5998 30.4337 68.4285 32.6803 65.8567 34.5819C65.5442 34.8145 65.2478 35.0713 64.9353 35.32C64.9273 35.3281 64.9353 35.3441 64.9434 35.3602C69.6864 33.948 74.3654 28.6283 73.9247 21.9126C73.3879 13.7686 66.2974 8.48108 59.0546 9.29146C51.1628 10.1741 46.2274 17.2348 47.1087 24.2876C47.5975 28.179 49.4482 31.2842 52.5809 33.611C53.9269 34.6059 55.4011 35.3361 57.0516 35.649Z" fill="#A10550"/>
<path d="M66.4493 19.9867C66.2089 20.059 65.9686 20.1633 65.7282 20.2114C65.3436 20.2756 65.2715 20.1793 65.3036 19.7861C65.4398 17.9166 65.1754 16.1354 64.1338 14.5307C63.7813 13.9851 63.3086 13.5679 62.6116 13.3271C62.8599 14.0493 63.1083 14.7072 63.2605 15.3892C63.7412 17.5556 63.4608 19.6337 62.5715 21.6476C61.8264 23.3406 60.8089 24.8811 59.9276 26.5019C58.9741 28.2591 58.2531 30.0804 58.3091 32.1345C58.3252 32.7603 58.3973 33.3862 58.5575 33.9959C58.5735 34.0682 58.6617 34.1484 58.5495 34.1885C58.4534 34.2286 58.4133 34.1324 58.3812 34.0601C58.1088 33.4824 57.9646 32.8726 57.9005 32.2468C57.6682 29.936 58.3252 27.8338 59.4549 25.852C59.5189 25.7397 59.583 25.6273 59.6552 25.4909C59.1985 25.6915 58.8219 26.0285 58.3732 26.7506C57.0913 28.8207 56.5065 31.0593 56.867 33.4824C57.1714 35.5285 58.6456 36.8363 60.7047 36.9807C61.1053 37.0128 61.5059 36.9968 61.9065 36.9888C62.0107 36.9888 62.1228 37.0128 62.1709 36.8925C60.3442 36.1944 59.3667 34.8224 59.1664 32.9208C59.0062 31.4364 59.8715 30.5137 61.3617 30.3934C61.9786 30.3452 62.5875 30.3934 63.1884 30.5378C63.7172 30.6581 64.246 30.6902 64.7668 30.4977C65.4718 30.2329 65.7202 29.7354 65.5359 29.0053C65.4718 28.7565 65.3837 28.5239 65.3276 28.2751C65.2235 27.8178 65.3597 27.5931 65.8083 27.4808C66.3051 27.3524 66.3131 27.3524 66.0166 26.9673C65.8804 26.7908 65.8884 26.6784 66.1208 26.6303C66.5374 26.542 66.5214 26.3174 66.3451 26.0125C66.273 25.8841 66.2089 25.7557 66.1528 25.6193C65.9445 25.0577 65.9846 24.9213 66.4813 24.5843C66.5935 24.5121 66.6977 24.4318 66.8018 24.3436C67.1623 24.0146 67.1704 23.7257 66.7938 23.4048C66.5615 23.2042 66.3051 23.0277 66.0327 22.8913C65.5199 22.6345 65.3116 22.2093 65.2635 21.6637C65.2555 21.5674 65.2475 21.4791 65.2395 21.3828C65.2395 21.1261 65.1754 20.8533 65.2475 20.6286C65.3436 20.3318 65.6962 20.5163 65.9125 20.42C66.1288 20.3237 66.3612 20.2515 66.5134 20.0429C66.4974 20.0349 66.4733 20.0108 66.4493 19.9867Z" fill="#A10550"/>
<path d="M50.6022 5.59241C51.7079 5.92941 52.6132 6.55525 53.2702 7.51808C53.3023 7.56622 53.3664 7.60634 53.4144 7.64646C53.086 6.30652 52.5812 5.0789 51.2592 4.40492C50.5942 4.06793 49.8972 4.18828 49.2162 4.29259C48.4791 4.41294 47.782 4.30864 47.109 4.00374C47.061 3.97967 47.0129 3.97967 46.9568 3.96362C46.9488 3.96362 46.9328 3.97165 46.8847 3.99572C47.061 4.89436 47.4776 5.6887 48.0625 6.38675C49.0559 7.57424 50.3298 8.26427 51.8521 8.52103C52.3969 8.60929 52.9097 8.78581 53.4385 9.13885C53.2702 8.28032 52.9497 7.59832 52.421 7.01259C51.9082 6.44292 51.2753 6.05778 50.6022 5.72079C50.3699 5.64858 50.1295 5.57637 49.8651 5.39985C50.1696 5.42392 50.3939 5.47206 50.6022 5.59241ZM49.7049 5.36775C49.7289 5.36775 49.745 5.36775 49.769 5.35973C49.761 5.36775 49.753 5.37578 49.737 5.37578C49.7209 5.3838 49.7129 5.36775 49.7049 5.36775Z" fill="#A10550"/>
<path d="M51.8924 9.86899C51.0511 9.37955 50.1698 9.01046 49.2164 8.87406C48.3271 8.74569 47.622 9.06663 47.1013 9.79678C46.9811 9.95725 46.8689 10.1257 46.7567 10.2862C46.3241 10.9442 45.8354 11.5299 44.954 11.7866C46.6846 12.7093 48.3511 13.271 50.1778 12.3082C51.0832 11.8348 51.8924 11.1849 52.998 10.9201C51.4678 10.0455 49.9936 10.0054 48.4553 10.551C49.4888 9.74864 50.6826 9.78875 51.8924 9.86899Z" fill="#A10550"/>
<path d="M54.6561 -2.07429e-07C53.4303 1.87752 52.9335 3.74702 53.943 5.80909C54.2555 6.44295 54.592 7.06879 54.4959 7.83906C55.0407 7.32555 55.4092 6.71576 55.6416 6.0177C55.8739 5.29558 55.7537 4.58148 55.6896 3.85935C56.2344 4.91847 56.2505 6.00165 55.8018 7.15705C57.4202 5.26348 57.3721 3.67481 56.0422 2.18242C55.7617 1.86148 55.4733 1.54855 55.2089 1.21156C54.9445 0.874572 54.7522 0.505487 54.6561 -2.07429e-07Z" fill="#A10550"/>
<path d="M59.9119 7.02868C59.311 7.83907 58.4858 8.32851 57.5003 8.6334C58.9585 9.16296 60.5528 8.75376 61.1617 7.22125C61.354 6.73181 61.4582 6.22632 61.5383 5.71281C61.6665 4.91045 61.7626 4.70986 62.2354 4.05193C61.6024 4.01181 61.0255 4.14019 60.4567 4.26054C59.2469 4.5173 58.3656 5.20733 57.7807 6.29854C57.4282 6.96449 57.0035 7.56627 56.2344 7.98349C57.324 8.19211 58.2374 8.01559 59.0867 7.44591C59.4071 7.22927 59.6715 6.94042 59.96 6.68367C60.0401 6.49913 60.1522 6.33865 60.3606 6.25039C60.2484 6.53924 60.1603 6.82809 59.9119 7.02868Z" fill="#A10550"/>
<path d="M59.9117 7.02881C60.1601 6.82822 60.2482 6.53937 60.3604 6.25854C60.152 6.33878 60.0399 6.49925 59.9598 6.69182C59.9437 6.80415 59.9277 6.91648 59.9117 7.02881Z" fill="#A10550"/>
<path d="M50.6021 5.59254C50.3937 5.47218 50.1774 5.42404 49.865 5.41602C50.1293 5.60056 50.3697 5.67277 50.6021 5.73696C50.6021 5.68079 50.6021 5.64068 50.6021 5.59254Z" fill="#A10550"/>
<path d="M66.5214 20.059C66.5455 20.0269 66.5775 19.9868 66.6016 19.9547C66.5375 19.9146 66.4894 19.9307 66.4493 19.9949C66.4734 20.0109 66.4974 20.035 66.5214 20.059Z" fill="#A10550"/>
<path d="M53.4049 7.64648L53.4297 7.67131L53.4049 7.65476L53.4049 7.64648Z" fill="#A10550"/>
<path d="M49.7045 5.36794C49.7125 5.37621 49.7285 5.38449 49.7365 5.38449C49.7445 5.38449 49.7605 5.37621 49.7686 5.36794C49.7445 5.35966 49.7205 5.36794 49.7045 5.36794Z" fill="#A10550"/>
<path d="M7.19049 41C8.64188 41 9.7202 41.0601 10.4254 41.1803C10.7627 41.2404 11.0898 41.3306 11.4067 41.4508C11.7235 41.571 12.0199 41.7212 12.2959 41.9015C12.8581 42.2621 13.3231 42.7529 13.6911 43.374C14.059 43.985 14.243 44.6711 14.243 45.4324C14.243 45.8531 14.1817 46.2588 14.059 46.6494C13.9364 47.0401 13.7626 47.4057 13.5378 47.7462C13.3231 48.0768 13.0574 48.3773 12.7405 48.6477C12.4237 48.9082 12.071 49.1235 11.6826 49.2938C12.7967 49.6144 13.6451 50.1452 14.2277 50.8865C14.8205 51.6277 15.1169 52.5142 15.1169 53.5459C15.0965 54.1669 14.9789 54.773 14.7643 55.3639C14.5599 55.9449 14.2583 56.4658 13.8597 56.9265C13.4713 57.3873 12.996 57.7679 12.4339 58.0684C11.8819 58.3689 11.2482 58.5392 10.5328 58.5793C10.2261 58.6094 9.70487 58.6344 8.96895 58.6544C8.24326 58.6644 7.29782 58.6795 6.13262 58.6995H0V41H7.19049ZM3.66424 48.0467H6.04063C6.76632 48.0467 7.3387 48.0417 7.75776 48.0317C8.18704 48.0217 8.48856 48.0017 8.66232 47.9716C9.30625 47.9115 9.80708 47.7112 10.1648 47.3706C10.5225 47.02 10.7014 46.5543 10.7014 45.9733C10.7014 45.4324 10.543 44.9866 10.2261 44.6361C9.91951 44.2855 9.46467 44.0801 8.86163 44.02C8.66743 43.99 8.31481 43.9649 7.80376 43.9449C7.30293 43.9249 6.61812 43.9149 5.74933 43.9149H3.66424V48.0467ZM3.66424 55.7095H7.03718C7.6811 55.7095 8.20749 55.7045 8.61633 55.6945C9.03539 55.6745 9.34202 55.6394 9.53622 55.5893C10.0677 55.4992 10.5021 55.2738 10.8394 54.9132C11.1767 54.5426 11.3453 54.0467 11.3453 53.4257C11.3453 52.3038 10.8292 51.5676 9.79686 51.217C9.55155 51.1369 9.16315 51.0768 8.63166 51.0367C8.10017 50.9967 7.41536 50.9766 6.57723 50.9766H3.66424V55.7095Z" fill="#A10550"/>
<path d="M18.2139 41H31.5983V43.99H21.8474V47.9115H30.9237V50.9316H21.8474V55.7095H31.9203V58.6995H18.2139V41Z" fill="#A10550"/>
<path d="M47.3438 58.6995L45.78 54.6578H38.5435L37.041 58.6995H33.1928L40.2453 41H44.0782L51.3147 58.6995H47.3438ZM42.1157 45.1169L39.678 51.7129H44.6148L42.1157 45.1169Z" fill="#A10550"/>
<path d="M56.8494 41V50.586C56.8494 51.3372 56.8647 51.9633 56.8954 52.4641C56.926 52.9549 56.9669 53.3155 57.018 53.5459C57.1611 54.2571 57.5239 54.8381 58.1065 55.2888C58.6994 55.7396 59.5017 55.9649 60.5136 55.9649C61.0349 55.9649 61.4897 55.9099 61.8781 55.7997C62.2665 55.6795 62.5936 55.5242 62.8593 55.3339C63.1251 55.1336 63.3346 54.9032 63.4879 54.6427C63.6412 54.3823 63.7434 54.1068 63.7946 53.8164C63.8661 53.4958 63.9121 53.0902 63.9325 52.5993C63.953 52.0985 63.9632 51.4975 63.9632 50.7963V41H67.6121V50.2855C67.6121 51.3673 67.5917 52.2788 67.5508 53.02C67.5099 53.7613 67.4332 54.3573 67.3208 54.808C67.1368 55.6995 66.7638 56.4407 66.2016 57.0317C65.9563 57.3322 65.6599 57.6027 65.3124 57.8431C64.9751 58.0835 64.5765 58.2888 64.1165 58.4591C63.6668 58.6294 63.1506 58.7596 62.568 58.8498C61.9956 58.9499 61.3517 59 60.6362 59C59.7675 59 59.006 58.9499 58.3519 58.8498C57.7079 58.7496 57.156 58.6093 56.696 58.429C56.2463 58.2287 55.8477 58.0033 55.5002 57.7529C55.1629 57.4925 54.8563 57.202 54.5803 56.8815C54.3248 56.581 54.1152 56.2654 53.9517 55.9349C53.7882 55.5943 53.6655 55.2588 53.5837 54.9282C53.4611 54.4174 53.3691 53.7913 53.3078 53.0501C53.2567 52.3088 53.2311 51.4374 53.2311 50.4357V41H56.8494Z" fill="#A10550"/>
<path d="M75.5232 43.99H70.1418V41H84.5075V43.99H79.1568V58.6995H75.5232V43.99Z" fill="#A10550"/>
<path d="M91.6213 51.2471L85.0134 41H89.2909L93.5378 48.0017L97.6926 41H101.909L95.2549 51.2771V58.6995H91.6213V51.2471Z" fill="#A10550"/>
<path d="M116.029 58.6995L114.465 54.6578H107.229L105.726 58.6995H101.878L108.931 41H112.764L120 58.6995H116.029ZM110.801 45.1169L108.363 51.7129H113.3L110.801 45.1169Z" fill="#A10550"/>
</svg>
