<svg width="280" height="40" viewBox="0 0 280 40" fill="none" xmlns="http://www.w3.org/2000/svg">
<path d="M31.933 15.052C31.8754 13.7742 31.669 12.8999 31.3761 12.1361C31.0689 11.3483 30.6608 10.6757 29.9934 10.0128C29.3261 9.34988 28.6588 8.93195 27.8714 8.6293C27.1081 8.33147 26.2343 8.1297 24.9572 8.07206C23.6754 8.01441 23.2673 8 20.0122 8C16.7524 8 16.3443 8.01441 15.0673 8.07206C13.7902 8.1297 12.9164 8.33627 12.1531 8.6293C11.3609 8.93675 10.6888 9.34508 10.0263 10.0128C9.36372 10.6805 8.94603 11.3483 8.64357 12.1361C8.35072 12.8999 8.14427 13.7742 8.08666 15.052C8.02905 16.3347 8.01465 16.743 8.01465 20C8.01465 23.2618 8.02905 23.6701 8.08666 24.948C8.14427 26.2258 8.35072 27.1001 8.64357 27.8639C8.95084 28.6517 9.35892 29.3243 10.0263 29.9872C10.6888 30.6549 11.3609 31.0681 12.1483 31.3707C12.9116 31.6685 13.7854 31.8703 15.0625 31.9279C16.3443 31.9856 16.7524 32 20.0074 32C23.2673 32 23.6754 31.9856 24.9524 31.9279C26.2295 31.8703 27.1033 31.6637 27.8666 31.3707C28.654 31.0633 29.3261 30.6549 29.9886 29.9872C30.6512 29.3195 31.0689 28.6517 31.3713 27.8639C31.669 27.1001 31.8706 26.2258 31.9282 24.948C31.9858 23.6653 32.0002 23.257 32.0002 20C32.0002 16.743 31.9906 16.3299 31.933 15.052ZM29.7774 24.8519C29.7246 26.024 29.5278 26.6629 29.3645 27.0809C29.1485 27.6381 28.8844 28.0416 28.4619 28.4644C28.0395 28.8871 27.641 29.1417 27.0793 29.3675C26.6568 29.5308 26.0182 29.7278 24.8516 29.7806C23.589 29.8383 23.2097 29.8527 20.0026 29.8527C16.7956 29.8527 16.4163 29.8383 15.1537 29.7806C13.9822 29.7278 13.3437 29.5308 12.926 29.3675C12.3691 29.1513 11.9658 28.8871 11.5434 28.4644C11.1209 28.0416 10.8664 27.6429 10.6408 27.0809C10.4775 26.6581 10.2807 26.0192 10.2279 24.8519C10.1703 23.5885 10.1559 23.209 10.1559 20C10.1559 16.791 10.1703 16.4115 10.2279 15.1481C10.2807 13.976 10.4775 13.3371 10.6408 12.9191C10.8568 12.3619 11.1209 11.9584 11.5434 11.5356C11.9658 11.1129 12.3643 10.8583 12.926 10.6325C13.3485 10.4692 13.987 10.2722 15.1537 10.2194C16.4163 10.1617 16.7956 10.1473 20.0026 10.1473C23.2097 10.1473 23.589 10.1617 24.8516 10.2194C26.0231 10.2722 26.6616 10.4692 27.0793 10.6325C27.6362 10.8487 28.0395 11.1129 28.4619 11.5356C28.8844 11.9584 29.1389 12.3571 29.3645 12.9191C29.5278 13.3419 29.7246 13.9808 29.7774 15.1481C29.835 16.4115 29.8494 16.791 29.8494 20C29.8494 23.209 29.8302 23.5885 29.7774 24.8519Z" fill="#FA58A6"/>
<path d="M20.0028 13.8318C16.5941 13.8318 13.8384 16.594 13.8384 19.9999C13.8384 23.4107 16.5989 26.1681 20.0028 26.1681C23.4067 26.1681 26.1672 23.401 26.1672 19.9999C26.1672 16.5892 23.4115 13.8318 20.0028 13.8318ZM20.0028 24.0015C17.7944 24.0015 16.0036 22.2097 16.0036 19.9999C16.0036 17.7902 17.7944 15.9983 20.0028 15.9983C22.2113 15.9983 24.002 17.7902 24.002 19.9999C24.002 22.2097 22.2113 24.0015 20.0028 24.0015Z" fill="#FA58A6"/>
<path d="M26.4071 15.0329C27.2025 15.0329 27.8474 14.3877 27.8474 13.5918C27.8474 12.7959 27.2025 12.1506 26.4071 12.1506C25.6116 12.1506 24.9668 12.7959 24.9668 13.5918C24.9668 14.3877 25.6116 15.0329 26.4071 15.0329Z" fill="#FA58A6"/>
<path d="M8 20C8 23.2618 8.0144 23.6701 8.07201 24.948C8.12963 26.2258 8.33607 27.1001 8.62893 27.8639C8.93619 28.6517 9.34427 29.3243 10.0116 29.9872C10.6741 30.6501 11.3463 31.0681 12.1336 31.3707C12.897 31.6685 13.7708 31.8703 15.0478 31.9279C16.3297 31.9856 16.7377 32 19.9928 32C23.2527 32 23.6607 31.9856 24.9378 31.9279C26.2148 31.8703 27.0886 31.6637 27.852 31.3707C28.6393 31.0633 29.3115 30.6549 29.974 29.9872C30.6365 29.3243 31.0542 28.6517 31.3567 27.8639C31.6543 27.1001 31.856 26.2258 31.9136 24.948C31.9712 23.6653 31.9856 23.257 31.9856 20C31.9856 16.7382 31.9712 16.3299 31.9136 15.052C31.856 13.7742 31.6495 12.8999 31.3567 12.1361C31.0494 11.3483 30.6413 10.6757 29.974 10.0128C29.3163 9.34508 28.6441 8.93195 27.8568 8.6293C27.0934 8.33147 26.2196 8.1297 24.9426 8.07206C23.6607 8.01441 23.2527 8 19.9976 8C16.7377 8 16.3297 8.01441 15.0526 8.07206C13.7756 8.1297 12.9018 8.33627 12.1384 8.6293C11.3511 8.93675 10.6789 9.34508 10.0164 10.0128C9.35387 10.6805 8.93619 11.3483 8.63373 12.1361C8.33607 12.8999 8.12963 13.7742 8.07201 15.052C8.0144 16.3299 8 16.7382 8 20ZM10.1652 20C10.1652 16.7958 10.1796 16.4115 10.2372 15.1481C10.2901 13.976 10.4869 13.3371 10.6501 12.9191C10.8662 12.3619 11.1302 11.9584 11.5527 11.5356C11.9752 11.1129 12.3737 10.8583 12.9354 10.6325C13.3579 10.4692 13.9964 10.2722 15.163 10.2194C16.4257 10.1617 16.805 10.1473 20.012 10.1473C23.219 10.1473 23.5983 10.1617 24.861 10.2194C26.0324 10.2722 26.6709 10.4692 27.0886 10.6325C27.6455 10.8487 28.0488 11.1129 28.4713 11.5356C28.8938 11.9584 29.1482 12.3571 29.3739 12.9191C29.5371 13.3419 29.7339 13.9808 29.7868 15.1481C29.8444 16.4115 29.8588 16.791 29.8588 20C29.8588 23.209 29.8444 23.5885 29.7868 24.8519C29.7339 26.024 29.5371 26.6629 29.3739 27.0809C29.1578 27.6381 28.8938 28.0416 28.4713 28.4644C28.0488 28.8871 27.6503 29.1417 27.0886 29.3675C26.6661 29.5308 26.0276 29.7278 24.861 29.7806C23.5983 29.8383 23.219 29.8527 20.012 29.8527C16.805 29.8527 16.4257 29.8383 15.163 29.7806C13.9916 29.7278 13.3531 29.5308 12.9354 29.3675C12.3785 29.1513 11.9752 28.8871 11.5527 28.4644C11.1302 28.0416 10.8758 27.6429 10.6501 27.0809C10.4869 26.6581 10.2901 26.0192 10.2372 24.8519C10.1748 23.5885 10.1652 23.2042 10.1652 20Z" fill="#FA58A6"/>
<path d="M73.2137 21.3283L73.8356 17.2331H69.9452V14.5768C69.9452 13.4562 70.4877 12.3632 72.2301 12.3632H74V8.8768C74 8.8768 72.3945 8.6001 70.8603 8.6001C67.6548 8.6001 65.5616 10.5619 65.5616 14.1119V17.2331H62V21.3283H65.5616V31.2285C66.2767 31.342 67.0082 31.4001 67.7534 31.4001C68.4986 31.4001 69.2301 31.342 69.9452 31.2285V21.3283H73.2137Z" fill="#FA58A6"/>
<path d="M125.057 15.1807C125.066 15.3919 125.066 15.5935 125.066 15.8047C125.076 22.2079 120.371 29.5999 111.768 29.5999C109.23 29.5999 106.739 28.8415 104.6 27.4207C104.971 27.4687 105.341 27.4879 105.711 27.4879C107.814 27.4879 109.86 26.7583 111.518 25.4047C109.518 25.3663 107.758 24.0127 107.147 22.0351C107.851 22.1791 108.573 22.1503 109.258 21.9487C107.082 21.5071 105.517 19.5199 105.508 17.2063C105.508 17.1871 105.508 17.1679 105.508 17.1487C106.156 17.5231 106.888 17.7343 107.628 17.7535C105.582 16.3327 104.943 13.5007 106.184 11.283C108.564 14.3167 112.064 16.1503 115.824 16.3519C115.444 14.6719 115.963 12.9054 117.176 11.715C119.056 9.88144 122.02 9.97744 123.798 11.9262C124.844 11.715 125.854 11.3118 126.77 10.7454C126.418 11.8686 125.687 12.819 124.714 13.4239C125.641 13.3087 126.548 13.0494 127.4 12.6654C126.77 13.6447 125.974 14.4895 125.057 15.1807Z" fill="#FA58A6"/>
<g clip-path="url(#clip0_3303_5013)">
<path d="M163.995 8C157.361 8 152 13.3706 152 19.9951C152 25.0794 155.159 29.4233 159.622 31.1707C159.513 30.2229 159.424 28.7618 159.661 27.7252C159.878 26.7873 161.063 21.7622 161.063 21.7622C161.063 21.7622 160.708 21.0416 160.708 19.9852C160.708 18.3167 161.675 17.0728 162.879 17.0728C163.906 17.0728 164.4 17.8429 164.4 18.761C164.4 19.7877 163.748 21.3278 163.403 22.7594C163.116 23.9539 164.005 24.9313 165.18 24.9313C167.312 24.9313 168.951 22.6804 168.951 19.4422C168.951 16.5693 166.888 14.5652 163.936 14.5652C160.52 14.5652 158.516 17.1222 158.516 19.768C158.516 20.7947 158.911 21.9004 159.404 22.5027C159.503 22.6211 159.513 22.7297 159.483 22.8482C159.394 23.2234 159.187 24.0428 159.148 24.2106C159.098 24.4278 158.97 24.4772 158.743 24.3686C157.262 23.6577 156.334 21.4661 156.334 19.7088C156.334 15.9276 159.079 12.4525 164.262 12.4525C168.418 12.4525 171.656 15.4142 171.656 19.383C171.656 23.5195 169.05 26.8466 165.436 26.8466C164.222 26.8466 163.077 26.2147 162.692 25.4644C162.692 25.4644 162.09 27.7548 161.942 28.3176C161.675 29.3641 160.944 30.6672 160.451 31.4669C161.576 31.8124 162.761 32 164.005 32C170.629 32 176 26.6294 176 20.0049C175.99 13.3706 170.619 8 163.995 8Z" fill="#FA58A6"/>
</g>
<path d="M222.8 20.1815C222.8 18.7961 221.737 17.6716 220.428 17.6716C219.782 17.6716 219.213 17.9327 218.795 18.3744C217.182 17.1496 214.942 16.3465 212.475 16.2461L213.557 10.885L217.068 11.6681C217.106 12.6118 217.846 13.3748 218.757 13.3748C219.687 13.3748 220.447 12.5716 220.447 11.5878C220.447 10.6039 219.687 9.80078 218.757 9.80078C218.093 9.80078 217.524 10.2024 217.258 10.8047L213.329 9.92125C213.215 9.90118 213.101 9.92125 213.006 9.98149C212.911 10.0417 212.854 10.1421 212.816 10.2626L211.621 16.2461C209.096 16.3264 206.837 17.1094 205.205 18.3744C204.788 17.9527 204.199 17.6716 203.573 17.6716C202.263 17.6716 201.2 18.7961 201.2 20.1815C201.2 21.2055 201.77 22.0689 202.605 22.4705C202.567 22.7114 202.548 22.9724 202.548 23.2335C202.548 27.0886 206.781 30.2008 212.019 30.2008C217.258 30.2008 221.491 27.0886 221.491 23.2335C221.491 22.9724 221.472 22.7315 221.434 22.4905C222.212 22.089 222.8 21.2055 222.8 20.1815ZM206.572 21.9685C206.572 20.9846 207.331 20.1815 208.261 20.1815C209.191 20.1815 209.95 20.9846 209.95 21.9685C209.95 22.9524 209.191 23.7555 208.261 23.7555C207.331 23.7555 206.572 22.9524 206.572 21.9685ZM216.005 26.687C214.847 27.9118 212.646 27.9921 212 27.9921C211.355 27.9921 209.134 27.8917 207.995 26.687C207.824 26.5063 207.824 26.2051 207.995 26.0244C208.166 25.8437 208.451 25.8437 208.622 26.0244C209.343 26.7874 210.899 27.0685 212.019 27.0685C213.139 27.0685 214.676 26.7874 215.417 26.0244C215.588 25.8437 215.872 25.8437 216.043 26.0244C216.176 26.2252 216.176 26.5063 216.005 26.687ZM215.701 23.7555C214.771 23.7555 214.012 22.9524 214.012 21.9685C214.012 20.9846 214.771 20.1815 215.701 20.1815C216.631 20.1815 217.391 20.9846 217.391 21.9685C217.391 22.9524 216.631 23.7555 215.701 23.7555Z" fill="#FA58A6"/>
<path d="M265.24 8H261.097V24.3478C261.097 26.2957 259.503 27.8957 257.52 27.8957C255.537 27.8957 253.943 26.2957 253.943 24.3478C253.943 22.4348 255.501 20.8695 257.414 20.8V16.6957C253.199 16.7652 249.8 20.1391 249.8 24.3478C249.8 28.5913 253.27 32 257.555 32C261.84 32 265.311 28.5565 265.311 24.3478V15.9652C266.869 17.0783 268.781 17.7391 270.8 17.7739V13.6696C267.683 13.5652 265.24 11.0609 265.24 8Z" fill="#FA58A6"/>
<defs>
<clipPath id="clip0_3303_5013">
<rect x="152" y="8" width="24" height="24" rx="6" fill="white"/>
</clipPath>
</defs>
</svg>
