<svg width="32" height="32" viewBox="0 0 32 32" fill="none" xmlns="http://www.w3.org/2000/svg">
<path d="M1.43652 30.2857L21.0125 10.7096M10.5068 21.2154L10.8441 20.9432C11.1712 20.6595 11.4676 20.3414 11.7279 19.9943C13.7511 17.2967 13.2044 13.4698 10.5068 11.4466L10.1696 11.7187C9.84244 12.0025 9.54609 12.3205 9.28576 12.6676C7.26255 15.3652 7.80924 19.1922 10.5068 21.2154ZM10.5068 21.2154L10.779 21.5526C11.0628 21.8798 11.3808 22.1761 11.7279 22.4365C14.4255 24.4596 18.2524 23.9129 20.2755 21.2154L20.0034 20.8781C19.7196 20.551 19.4016 20.2546 19.0544 19.9942C16.3569 17.9711 12.53 18.5178 10.5068 21.2154ZM15.3912 16.331L15.7284 16.0588C16.0556 15.775 16.3519 15.457 16.6123 15.1099C18.6355 12.4123 18.0888 8.58536 15.3912 6.56216L15.054 6.83431C14.7268 7.11807 14.4305 7.43611 14.1701 7.78323C12.1469 10.4808 12.6936 14.3078 15.3912 16.331ZM15.3912 16.331L15.6633 16.6682C15.9471 16.9954 16.2652 17.2917 16.6123 17.5521C19.3099 19.5752 23.1368 19.0285 25.1599 16.331L24.8877 15.9937C24.604 15.6665 24.2859 15.3702 23.9388 15.1098C21.2412 13.0867 17.4143 13.6334 15.3912 16.331ZM20.2755 11.4466L20.6128 11.1744C20.9399 10.8906 21.2363 10.5726 21.4966 10.2255C23.5198 7.52791 22.9731 3.70096 20.2755 1.67775L19.9383 1.9499C19.6112 2.23367 19.3148 2.55171 19.0545 2.89882C17.0313 5.5964 17.578 9.42336 20.2755 11.4466ZM20.2755 11.4466L20.5477 11.7838C20.8315 12.111 21.1495 12.4073 21.4967 12.6677C24.1942 14.6908 28.0211 14.1441 30.0443 11.4466L29.7721 11.1093C29.4883 10.7821 29.1703 10.4858 28.8231 10.2254C26.1256 8.20229 22.2987 8.749 20.2755 11.4466ZM5.50682 26.2154L5.84405 25.9432C6.17121 25.6595 6.46756 25.3414 6.72789 24.9943C8.7511 22.2967 8.20441 18.4698 5.50682 16.4466L5.16959 16.7187C4.84244 17.0025 4.54609 17.3205 4.28575 17.6676C2.26255 20.3652 2.80924 24.1922 5.50682 26.2154ZM5.50682 26.2154L5.77898 26.5526C6.06276 26.8798 6.38081 27.1761 6.72795 27.4365C9.4255 29.4596 13.2524 28.9129 15.2755 26.2154L15.0034 25.8781C14.7196 25.551 14.4016 25.2546 14.0544 24.9942C11.3569 22.9711 7.52998 23.5178 5.50682 26.2154ZM30.2236 1.4996C30.7005 4.83772 28.381 7.93033 25.0429 8.40719C24.6134 8.46855 24.179 8.48389 23.747 8.45321L23.3161 8.40712C22.8392 5.06906 25.1587 1.97646 28.4967 1.49959C29.0694 1.41778 29.6509 1.41778 30.2236 1.4996Z" stroke="#79043C" stroke-width="1.66667" stroke-linecap="round"/>
</svg>
